<?xml version="1.0" encoding="utf-8"?>
<!-- Generator: Adobe Illustrator 25.4.1, SVG Export Plug-In . SVG Version: 6.00 Build 0)  -->
<svg version="1.1" id="Layer_1" xmlns="http://www.w3.org/2000/svg" xmlns:xlink="http://www.w3.org/1999/xlink" x="0px" y="0px"
	 viewBox="0 0 1366 768" style="enable-background:new 0 0 1366 768;" xml:space="preserve">
<g>
	<path d="M1186.2,308.5C1157.8,65.2,949,19.3,807.2,60.3C743.7,78.6,697.7,120.7,666.4,176c-37.6,66.5-68.1,137-103.4,204.8
		c-14.2,27.2-29.4,55.8-50.9,76.9c-38.5,37.7-91.7,24.9-115.8-23.4c-0.4-0.8-0.8-1.6-1.2-2.5c-22.9-48.7,4.4-106.2,56.3-120.5
		c10.2-2.8,20.7-5.6,31.1-8.9V57.6c-51-3.7-101.9,7.2-146.9,30.5c-1.9,1-3.8,2-5.7,3c-1,0.5-2,1.1-3,1.6
		c-36.6,19.9-67.9,49.2-94.1,90.1c-86,133.9-74.6,327.2,26.1,449.7C364.9,761.6,558.1,765,662.6,635c36.2-45,60-100.5,86.5-152.7
		c22-43.4,37.9-90,59.8-133.5c17.6-34.9,46.5-56.5,88.6-52.8c40.4,3.6,71.4,31.2,81.3,72.2c10.3,42.4-4.1,83.4-42.1,102.7
		c-25.9,13.2-55.9,18.6-85.6,28.1v244.9c167.6,12.3,292.9-74.5,326.8-234C1191.7,444.9,1193.9,374.6,1186.2,308.5z"/>
	<path d="M769.3,566.8c-34.8-1.5-65,25.5-66.7,59.6c-1.7,34.6,25.3,64.5,60,66.3c34.7,1.8,64.7-25.1,66.5-59.6
		C830.9,598.5,803.7,568.3,769.3,566.8z"/>
	<path d="M572.4,232.4c34.5,0,63.2-29.2,62.8-63.7c-0.4-34.2-30-62.8-64.5-62.3c-34,0.5-62.2,30.8-60.9,65.5
		C511.1,205.1,539.3,232.4,572.4,232.4z"/>
</g>
</svg>
